<?xml version="1.0"?>
<svg xmlns="http://www.w3.org/2000/svg" xmlns:xlink="http://www.w3.org/1999/xlink" xmlns:svgjs="http://svgjs.com/svgjs" version="1.1" width="512" height="512" x="0" y="0" viewBox="0 0 24 24" style="enable-background:new 0 0 512 512" xml:space="preserve"><g><path xmlns="http://www.w3.org/2000/svg" d="M19,4H17.9A5.009,5.009,0,0,0,13,0H11A5.009,5.009,0,0,0,6.1,4H5A5.006,5.006,0,0,0,0,9v3H24V9A5.006,5.006,0,0,0,19,4ZM8.184,4A3,3,0,0,1,11,2h2a3,3,0,0,1,2.816,2Z" fill="#009688" data-original="#000000"/><path xmlns="http://www.w3.org/2000/svg" d="M13,15a1,1,0,0,1-2,0V14H0v5a5.006,5.006,0,0,0,5,5H19a5.006,5.006,0,0,0,5-5V14H13Z" fill="#009688" data-original="#000000"/></g></svg>
