<?xml version="1.0"?>
<svg xmlns="http://www.w3.org/2000/svg" xmlns:xlink="http://www.w3.org/1999/xlink" xmlns:svgjs="http://svgjs.com/svgjs" version="1.1" width="512" height="512" x="0" y="0" viewBox="0 0 24 24" style="enable-background:new 0 0 512 512" xml:space="preserve"><g><path xmlns="http://www.w3.org/2000/svg" d="M19,4H17.9A5.009,5.009,0,0,0,13,0H11A5.009,5.009,0,0,0,6.1,4H5A5.006,5.006,0,0,0,0,9V19a5.006,5.006,0,0,0,5,5H19a5.006,5.006,0,0,0,5-5V9A5.006,5.006,0,0,0,19,4ZM11,2h2a3,3,0,0,1,2.816,2H8.184A3,3,0,0,1,11,2ZM5,6H19a3,3,0,0,1,3,3v3H2V9A3,3,0,0,1,5,6ZM19,22H5a3,3,0,0,1-3-3V14h9v1a1,1,0,0,0,2,0V14h9v5A3,3,0,0,1,19,22Z" fill="#009688" data-original="#000000"/></g></svg>
