<?xml version="1.0"?>
<svg xmlns="http://www.w3.org/2000/svg" xmlns:xlink="http://www.w3.org/1999/xlink" xmlns:svgjs="http://svgjs.com/svgjs" version="1.1" width="512" height="512" x="0" y="0" viewBox="0 0 24 24" style="enable-background:new 0 0 512 512" xml:space="preserve"><g><path xmlns="http://www.w3.org/2000/svg" d="m24 8.48v11.52a1 1 0 0 1 -2 0v-8.248l-7.4 3.536a5 5 0 0 1 -2.577.694 5.272 5.272 0 0 1 -2.7-.739l-7.38-3.513a3.691 3.691 0 0 1 -.084-6.455c.027-.016.056-.031.084-.045l7.457-3.558a5.226 5.226 0 0 1 5.282.045l7.375 3.513a3.767 3.767 0 0 1 1.943 3.25zm-11.978 9.5a7.26 7.26 0 0 1 -3.645-.972l-4.377-2.089v2.7a5.007 5.007 0 0 0 3.519 4.778 15.557 15.557 0 0 0 4.481.603 15.557 15.557 0 0 0 4.481-.607 5.007 5.007 0 0 0 3.519-4.778v-2.691l-4.459 2.13a6.983 6.983 0 0 1 -3.519.928z" fill="#009688" data-original="#000000"/></g></svg>
